<?xml version="1.0" encoding="UTF-8"?>
<svg width="448px" height="512px" viewBox="0 0 448 512" version="1.1" xmlns="http://www.w3.org/2000/svg" xmlns:xlink="http://www.w3.org/1999/xlink">
    <title>Group</title>
    <g id="Page-1" stroke="none" stroke-width="1" fill="none" fill-rule="evenodd">
        <g id="Group" fill="#333333" fill-rule="nonzero">
            <path d="M432,32 L312,32 L302.6,13.3 C298.538428,5.14542737 290.21007,-0.00653386567 281.1,-0.000176270995 L166.8,-0.000176270995 C157.707064,-0.0349550427 149.394414,5.13131798 145.4,13.3 L136,32 L16,32 C7.163444,32 0,39.163444 0,48 L0,80 C0,88.836556 7.163444,96 16,96 L432,96 C440.836556,96 448,88.836556 448,80 L448,48 C448,39.163444 440.836556,32 432,32 Z M53.2,467 C54.7839002,492.29286 75.7575944,512 101.1,512 L346.9,512 C372.242406,512 393.2161,492.29286 394.8,467 L416,128 L32,128 L53.2,467 Z" id="Shape"></path>
        </g>
    </g>
</svg>